<?xml version="1.0" encoding="UTF-8"?>
<svg width="220px" height="23px" viewBox="0 0 220 23" version="1.1" xmlns="http://www.w3.org/2000/svg" xmlns:xlink="http://www.w3.org/1999/xlink">
    <g stroke="none" stroke-width="1" fill="none" fill-rule="evenodd">
        <g transform="translate(-167.000000, -204.000000)" fill="#FFFFFF" fill-rule="nonzero">
            <path d="M253.4198,216.9178 C255.767,217.321 257.681,218.4004 257.7062,221.248 C257.7062,224.3056 255.0434,225.9484 251.7266,225.9484 C248.3084,225.9484 246.5564,224.9602 246.1892,224.7718 L247.3718,222.0166 C247.8074,222.1954 249.3134,222.9598 251.8796,222.9598 C253.4822,222.9598 254.5412,222.4312 254.5412,221.3044 C254.5412,220.4164 253.7954,219.9106 252.4382,219.6808 C252.1874,219.6376 251.3114,219.4876 251.033,219.436 C249.0146,219.0814 246.9212,218.1412 246.9212,215.2108 C246.9212,211.936 249.9818,210.6208 252.4886,210.6208 C255.2252,210.6208 256.9628,211.5484 257.3726,211.762 L256.3058,214.5778 C256.1108,214.4806 254.4032,213.598 252.4556,213.598 C251.1464,213.598 250.0946,214.066 250.0946,215.0692 C250.0946,216.2368 251.0894,216.5086 252.251,216.718 C252.4658,216.7564 253.2014,216.8794 253.4198,216.9178 Z M263.549,205.492 L263.5496,205.492 L263.5496,210.9064 L267.1556,210.9064 L267.1556,213.9094 L263.5496,213.9094 L263.5496,219.9682 C263.5496,221.5174 264.38,222.658 266.3558,222.658 L266.8274,222.658 L266.8274,225.6616 L265.5698,225.6616 C261.5486,225.6616 260.4104,223.1716 260.4104,220.399 L260.4104,213.9088 L258.7574,213.9088 L258.7574,210.9064 L260.4104,210.9064 L260.4104,207.2284 L263.549,205.492 Z M288.0764,213.673 C285.9428,213.673 285.3776,214.84 285.3776,216.1696 L285.3776,220.3972 C285.3776,221.7286 285.9428,222.8962 288.0764,222.8962 C289.3016,222.8962 290.5568,222.3352 290.933,220.9882 L293.7824,222.0718 C292.9844,224.8918 290.3648,225.9478 288.0536,225.9478 C283.9124,225.9478 282.2438,223.375 282.2438,220.8766 L282.2438,215.6908 C282.2438,213.1918 283.913,210.6208 288.0536,210.6208 C290.3648,210.6208 292.9844,211.675 293.7824,214.495 L290.933,215.5786 C290.5568,214.2298 289.3016,213.673 288.0764,213.673 Z M301.5002,217.534 L307.7546,225.6628 L303.9872,225.6628 L299.4908,219.802 L298.46,220.966 L298.46,225.6628 L295.3184,225.6628 L295.3184,205.4926 L298.46,205.4926 L298.46,216.6832 L303.509,210.9064 L307.3694,210.9064 L301.5002,217.534 Z M275.9372,214.1266 L272.6726,214.1266 C272.1536,214.1266 271.7318,214.5484 271.7318,215.0656 L271.7318,218.6068 L268.5128,218.6068 L268.5128,215.0656 C268.5128,212.7676 270.374,210.9064 272.6732,210.9064 L275.9378,210.9064 L275.9378,214.1266 L275.9372,214.1266 Z M273.2804,222.4414 L276.5462,222.4414 C277.0634,222.4414 277.4852,222.0208 277.4852,221.5024 L277.4852,217.9612 L280.7054,217.9612 L280.7054,221.5024 C280.7054,223.7998 278.843,225.6628 276.5456,225.6628 L273.2798,225.6628 L273.2798,222.4414 L273.2804,222.4414 Z M220.0406,210.9064 L223.6454,210.9064 L223.6454,213.9088 L220.0406,213.9088 L220.0406,219.9676 C220.0406,221.5168 220.8704,222.6574 222.8438,222.6574 L223.3154,222.6574 L223.3154,225.6622 L222.0578,225.6622 C218.0372,225.6622 216.9008,223.1722 216.9008,220.3996 L216.9008,213.9094 L211.6166,213.9094 L211.6166,219.9682 C211.6166,221.5174 212.4476,222.658 214.4222,222.658 L214.8914,222.658 L214.8914,225.6628 L213.6332,225.6628 C209.6138,225.6628 208.475,223.1728 208.475,220.4002 L208.475,213.9094 L206.8838,213.9094 L206.8838,210.9064 L208.475,210.9064 L208.475,207.229 L211.616,205.492 L211.616,210.9064 L216.9002,210.9064 L216.9002,207.229 L220.0394,205.492 L220.0394,210.9064 L220.0406,210.9064 Z M186.1484,210.6208 C189.5498,210.6208 191.7068,212.8078 191.7068,215.7856 L191.7068,225.6628 L188.5694,225.6628 L188.5694,216.2146 C188.5694,214.5964 187.6406,213.499 185.6672,213.499 C184.7792,213.499 183.8714,213.736 183.2402,214.1326 L183.2402,225.6628 L180.101,225.6628 L180.101,205.4926 L183.2402,205.4926 L183.2402,211.1974 C184.1474,210.8128 185.1548,210.6208 186.1484,210.6208 Z M202.0622,222.7276 L202.0628,222.7276 L202.0628,210.9064 L205.2008,210.9064 L205.2008,224.7214 C203.4404,225.4846 201.4082,225.9478 199.5722,225.9478 C195.74,225.9478 193.595,224.1628 193.595,220.4518 L193.595,210.9064 L196.7342,210.9064 L196.7342,220.3948 C196.7342,222.0412 197.6156,223.2346 199.9586,223.2346 C200.7098,223.2346 201.4652,223.0498 202.0622,222.7276 Z M174.23,216.9178 C176.576,217.321 178.4882,218.4004 178.5176,221.2474 C178.5176,224.305 175.8548,225.9478 172.5374,225.9478 C169.1192,225.9478 167.3684,224.9596 167,224.7712 L168.182,222.0166 C168.617,222.1954 170.1236,222.9598 172.691,222.9598 C174.2936,222.9598 175.3496,222.4312 175.3496,221.3044 C175.3496,220.4164 174.6074,219.9106 173.2502,219.6808 C172.9988,219.6376 172.1216,219.4876 171.8432,219.436 C169.823,219.0814 167.7314,218.1412 167.7314,215.2108 C167.7314,211.936 170.7926,210.6208 173.2976,210.6208 C176.0354,210.6208 177.7748,211.5484 178.1822,211.762 L177.1154,214.5778 C176.9216,214.4806 175.2128,213.598 173.2658,213.598 C171.9554,213.598 170.9048,214.066 170.9048,215.0692 C170.9048,216.2368 171.902,216.5086 173.0606,216.718 C173.2766,216.7564 174.0128,216.8794 174.23,216.9178 Z M236.627,215.6908 L236.627,219.7078 L228.1934,219.7078 L228.2048,220.5166 C228.2048,221.8732 228.9512,222.9562 230.8922,222.9562 C232.325,222.9562 233.3738,222.037 233.6,221.3806 L236.2508,222.9724 C235.7552,224.089 234.0854,225.9478 230.8712,225.9478 C227.2268,225.9478 225.0602,223.981 225.0602,220.5916 L225.0602,215.6908 C225.0602,213.241 226.673,210.6196 230.8712,210.6196 C234.5702,210.6196 236.627,212.9914 236.627,215.6908 Z M233.4872,217.1656 L233.4872,216.034 C233.4872,214.861 232.844,213.61 230.8568,213.61 C228.7958,213.61 228.194,214.8946 228.194,216.0916 L228.194,217.1656 L233.4872,217.1656 Z M238.6364,215.6962 C238.6364,213.1222 240.407,210.6196 244.3982,210.6196 C245.0678,210.6196 245.7158,210.7102 245.9996,210.7786 L245.9996,213.8218 C245.738,213.7732 244.9214,213.67 244.559,213.67 C242.2544,213.67 241.7738,215.1178 241.7738,215.9644 L241.7738,225.6616 L238.6364,225.6616 L238.6364,215.6962 Z M321.9185,226.31 C319.0355,226.31 317.0825,224.946 316.2455,222.404 C315.9665,221.505 315.8115,220.482 315.8115,218.591 C315.8115,216.731 315.9665,215.646 316.2455,214.747 C317.0515,212.267 319.0665,210.903 321.7325,210.903 C324.3985,210.903 326.4445,212.267 327.2505,214.747 C327.5605,215.677 327.6845,216.638 327.6845,218.684 C327.6845,218.87 327.5605,218.994 327.3435,218.994 L317.7025,218.994 C317.5785,218.994 317.5165,219.087 317.5165,219.211 C317.5165,220.451 317.6095,221.133 317.8265,221.815 C318.5085,223.768 319.9965,224.698 322.0115,224.698 C323.9335,224.698 325.2665,223.892 326.1345,222.807 C326.2585,222.652 326.4135,222.621 326.5685,222.745 L327.2815,223.396 C327.4365,223.52 327.4365,223.675 327.3125,223.83 C326.2275,225.287 324.3675,226.31 321.9185,226.31 Z M317.7025,217.568 L325.7935,217.568 C325.9175,217.568 325.9795,217.506 325.9795,217.382 C325.9795,216.483 325.8865,215.832 325.7005,215.243 C325.1115,213.414 323.6855,212.453 321.7325,212.453 C319.8105,212.453 318.3845,213.414 317.7955,215.243 C317.6095,215.832 317.5165,216.483 317.5165,217.382 C317.5165,217.506 317.5785,217.568 317.7025,217.568 Z M342.0125,226 L340.9585,226 C340.7725,226 340.6485,225.876 340.6485,225.69 L340.6485,223.892 L340.6175,223.892 C339.9045,225.287 338.5715,226.31 336.1225,226.31 C333.5185,226.31 331.8445,225.132 331.1005,222.776 C330.6975,221.567 330.5735,220.265 330.5735,218.622 C330.5735,216.948 330.6975,215.646 331.1005,214.437 C331.8445,212.081 333.5185,210.903 336.1225,210.903 C338.5715,210.903 339.9045,211.926 340.6175,213.321 L340.6485,213.321 L340.6485,205.23 C340.6485,205.044 340.7725,204.92 340.9585,204.92 L342.0125,204.92 C342.1985,204.92 342.3225,205.044 342.3225,205.23 L342.3225,225.69 C342.3225,225.876 342.1985,226 342.0125,226 Z M336.4635,224.698 C338.3235,224.698 339.6875,223.83 340.2455,222.094 C340.5245,221.288 340.6485,220.234 340.6485,218.622 C340.6485,217.01 340.5245,215.925 340.2455,215.119 C339.6875,213.383 338.3235,212.515 336.4635,212.515 C334.5415,212.515 333.2395,213.445 332.6815,215.119 C332.3715,216.049 332.2785,217.289 332.2785,218.622 C332.2785,219.924 332.3715,221.164 332.6815,222.094 C333.2395,223.768 334.5415,224.698 336.4635,224.698 Z M348.7455,207.276 L347.3815,207.276 C347.1955,207.276 347.0715,207.152 347.0715,206.966 L347.0715,205.23 C347.0715,205.044 347.1955,204.92 347.3815,204.92 L348.7455,204.92 C348.9315,204.92 349.0555,205.044 349.0555,205.23 L349.0555,206.966 C349.0555,207.152 348.9315,207.276 348.7455,207.276 Z M348.5905,226 L347.5365,226 C347.3505,226 347.2265,225.876 347.2265,225.69 L347.2265,211.523 C347.2265,211.337 347.3505,211.213 347.5365,211.213 L348.5905,211.213 C348.7765,211.213 348.9005,211.337 348.9005,211.523 L348.9005,225.69 C348.9005,225.876 348.7765,226 348.5905,226 Z M358.8575,226.093 L358.0515,226.093 C355.2615,226.093 354.2075,225.008 354.2075,222.094 L354.2075,212.887 C354.2075,212.763 354.1455,212.701 354.0215,212.701 L352.4715,212.701 C352.2855,212.701 352.1615,212.577 352.1615,212.391 L352.1615,211.523 C352.1615,211.337 352.2855,211.213 352.4715,211.213 L354.0215,211.213 C354.1455,211.213 354.2075,211.151 354.2075,211.027 L354.2075,206.78 C354.2075,206.594 354.3315,206.47 354.5175,206.47 L355.5715,206.47 C355.7575,206.47 355.8815,206.594 355.8815,206.78 L355.8815,211.027 C355.8815,211.151 355.9435,211.213 356.0675,211.213 L358.8575,211.213 C359.0435,211.213 359.1675,211.337 359.1675,211.523 L359.1675,212.391 C359.1675,212.577 359.0435,212.701 358.8575,212.701 L356.0675,212.701 C355.9435,212.701 355.8815,212.763 355.8815,212.887 L355.8815,222.001 C355.8815,223.985 356.5635,224.481 358.2685,224.481 L358.8575,224.481 C359.0435,224.481 359.1675,224.605 359.1675,224.791 L359.1675,225.783 C359.1675,225.969 359.0435,226.093 358.8575,226.093 Z M367.6675,226.31 C364.9705,226.31 362.9555,224.915 362.1495,222.466 C361.8395,221.474 361.6535,220.389 361.6535,218.591 C361.6535,216.824 361.8395,215.739 362.1495,214.747 C362.9555,212.298 364.9705,210.903 367.6675,210.903 C370.3955,210.903 372.4105,212.298 373.2165,214.747 C373.5265,215.739 373.7125,216.824 373.7125,218.591 C373.7125,220.389 373.5265,221.474 373.2165,222.466 C372.4105,224.915 370.3955,226.31 367.6675,226.31 Z M367.6675,224.698 C369.5895,224.698 371.0155,223.706 371.6045,221.939 C371.8835,221.102 372.0075,220.203 372.0075,218.591 C372.0075,217.01 371.8835,216.111 371.6045,215.274 C371.0155,213.507 369.5895,212.515 367.6675,212.515 C365.7765,212.515 364.3505,213.507 363.7615,215.274 C363.4825,216.111 363.3585,217.01 363.3585,218.591 C363.3585,220.203 363.4825,221.102 363.7615,221.939 C364.3505,223.706 365.7765,224.698 367.6675,224.698 Z M378.9885,226 L377.9345,226 C377.7485,226 377.6245,225.876 377.6245,225.69 L377.6245,211.523 C377.6245,211.337 377.7485,211.213 377.9345,211.213 L378.9885,211.213 C379.1745,211.213 379.2985,211.337 379.2985,211.523 L379.2985,213.414 L379.3295,213.414 C379.8875,211.957 381.2205,210.903 383.2975,210.903 C384.4755,210.903 385.5605,211.306 386.2735,211.926 C386.4285,212.019 386.4595,212.174 386.3355,212.329 L385.7155,213.197 C385.5915,213.352 385.4365,213.352 385.2505,213.259 C384.5685,212.825 383.8245,212.515 382.8945,212.515 C380.2905,212.515 379.2985,214.778 379.2985,217.506 L379.2985,225.69 C379.2985,225.876 379.1745,226 378.9885,226 Z M309.97425,213 L309.85425,213 C309.84375,213 309.83925,212.9955 309.83475,212.985 L309.63075,212.568 L309.40575,212.568 C309.39975,212.568 309.39675,212.571 309.39675,212.577 L309.39675,212.985 C309.39675,212.994 309.39075,213 309.38175,213 L309.27825,213 C309.26925,213 309.26325,212.994 309.26325,212.985 L309.26325,211.995 C309.26325,211.986 309.26925,211.98 309.27825,211.98 L309.64725,211.98 C309.83775,211.98 309.96675,212.097 309.96675,212.274 C309.96675,212.412 309.88875,212.5125 309.76575,212.5515 L309.98325,212.982 C309.98925,212.991 309.98475,213 309.97425,213 Z M309.64425,212.4435 C309.76275,212.4435 309.83325,212.3805 309.83325,212.274 C309.83325,212.1675 309.76275,212.1045 309.64425,212.1045 L309.40575,212.1045 C309.39975,212.1045 309.39675,212.1075 309.39675,212.1135 L309.39675,212.4345 C309.39675,212.4405 309.39975,212.4435 309.40575,212.4435 L309.64425,212.4435 Z M309.5,213.85 C310.245584,213.85 310.85,213.245584 310.85,212.5 C310.85,211.754416 310.245584,211.15 309.5,211.15 C308.754416,211.15 308.15,211.754416 308.15,212.5 C308.15,213.245584 308.754416,213.85 309.5,213.85 Z M309.5,214.15 C308.58873,214.15 307.85,213.41127 307.85,212.5 C307.85,211.58873 308.58873,210.85 309.5,210.85 C310.41127,210.85 311.15,211.58873 311.15,212.5 C311.15,213.41127 310.41127,214.15 309.5,214.15 Z"></path>
        </g>
    </g>
</svg>
